# xmcd CD database file
#
# Track frame offsets:
#	150
#	22130
#	50602
#	66132
#	84920
#	102490
#	124410
#	143382
#	159752
#	175127
#
# Disc length: 2557 seconds
#
# Revision: 0
# Processed by: cddbd v1.5.1PL0 Copyright (c) Steve Scherf et al.
# Submitted via: CDex 1.51
#
DISCID=7e09fb0a
DTITLE=Tatsuya Oe - Director's Cut
DYEAR=2004
DGENRE=Techno
TTITLE0=Tessera
TTITLE1=The Grid
TTITLE2=Time Has Told me (revisited)
TTITLE3=This Guy's in Love With you
TTITLE4=Helicity
TTITLE5=It Happens
TTITLE6=Life Game
TTITLE7=Plotter
TTITLE8=M61
TTITLE9=All Around
EXTD=YEAR: 2004
EXTT0=
EXTT1=
EXTT2=
EXTT3=
EXTT4=
EXTT5=
EXTT6=
EXTT7=
EXTT8=
EXTT9=
PLAYORDER=
